Simulation
nRows=36
nColumns=15
endheader
time  TH_x TH_y TH_z SC_y  SC_z  SC_x  AC_y  AC_z  AC_x  GH_y  GH_z  GH_yy  EL_x  PS_y
1.7000000000000002  0.000000  0.000000  0.000000  -31.96588174802177  5.635768565867597  15.885872938167621  65.75874334982738  14.446689615742848  -3.0150253740471267  53.764947873723635  58.52188889269735  -51.38237492956805  23.15034902136357  0.000000
1.7340000000000002  0.000000  0.000000  0.000000  -31.9414049223531  5.607098099964879  15.79227658590907  65.68856656211679  14.490818150811695  -3.056933288191067  53.592514486879914  58.362976959221946  -50.991067550679674  23.148775545577706  0.000000
1.7680000000000002  0.000000  0.000000  0.000000  -31.91157466774975  5.5636578320345995  15.665055719027919  65.61611518780029  14.532403375060738  -3.1074391540246475  53.37532671807016  58.12604416476749  -50.505002686679106  23.15257799932298  0.000000
1.802  0.000000  0.000000  0.000000  -31.876665591173033  5.50551346641225  15.505168601480776  65.54167704363957  14.570779566055231  -3.166297292609208  53.11365252163625  57.81156722614848  -49.925226816740725  23.161674116290136  0.000000
1.836  0.000000  0.000000  0.000000  -31.837103771884873  5.432783097113857  15.313897034589226  65.46575630710858  14.604903246502671  -3.2331966573472117  52.807721610675884  57.4200713334527  -49.25300071159874  23.17601627679173  0.000000
1.87  0.000000  0.000000  0.000000  -31.793383269662968  5.345581025712057  15.092660549315239  65.3887169888056  14.633664111108772  -3.3077849814790303  52.457977298713736  56.9522317933502  -48.48973023653884  23.195471970534822  0.000000
1.9040000000000001  0.000000  0.000000  0.000000  -31.745958448925887  5.243956874728624  14.84320877573989  65.31121870460863  14.65564795871129  -3.3897523390067392  52.06461741229121  56.40876543234042  -47.63723416607726  23.219651262539745  0.000000
1.9380000000000002  0.000000  0.000000  0.000000  -31.695510260470524  5.127978139394839  14.567605158150341  65.23372918211732  14.66915833438946  -3.478844831838311  51.628025174144405  55.790381097961166  -46.69731313221992  23.248608442996904  0.000000
1.9720000000000002  0.000000  0.000000  0.000000  -31.64317838002231  4.997836588387642  14.267972951478487  65.15671016594294  14.672022531545524  -3.574784685948345  51.14879532130498  55.098270607341256  -45.67196846222837  23.282804355130345  0.000000
2.0060000000000002  0.000000  0.000000  0.000000  -31.589629640243984  4.854327142852116  13.945929555194924  65.07978454731837  14.662598528058512  -3.676679416395174  50.6281250173093  54.33404497310982  -44.56321633473829  23.322906107434186  0.000000
2.04  0.000000  0.000000  0.000000  -31.533457046653115  4.6974412950238165  13.603696977913545  65.00393361964277  14.63984224897034  -3.7840143911685677  50.066214298217865  53.49940824783356  -43.37464073949101  23.36776236442146  0.000000
2.0740000000000003  0.000000  0.000000  0.000000  -31.47531756910344  4.526731679076267  13.245066294356759  64.93060251942028  14.601299182059801  -3.8971587308821407  49.4637435644134  52.59533009083619  -42.10892049516642  23.420108104691767  0.000000
2.108  0.000000  0.000000  0.000000  -31.417803867317442  4.34313633678241  12.871255199521476  64.85756741760648  14.544591972366325  -4.016272007409228  48.822983644149154  51.6223699356189  -40.76671421018488  23.483056521160574  0.000000
2.1420000000000003  0.000000  0.000000  0.000000  -31.359478895664832  4.146691435877494  12.480865428494491  64.7803650778241  14.46899723339101  -4.14189551357534  48.14404973131503  50.58165675797085  -39.35154997698558  23.551236287843338  0.000000
2.176  0.000000  0.000000  0.000000  -31.298705915466655  3.9368679096642865  12.074635493358803  64.6958931085128  14.374533279933091  -4.275941478890261  47.425962404303206  49.47343868097633  -37.868066955071484  23.62324911473858  0.000000
2.21  0.000000  0.000000  0.000000  -31.235607226420722  3.714076507577654  11.654146530664992  64.60083366507385  14.260924597509547  -4.419177466407663  46.669642365403995  48.299265919727034  -36.3189053395438  23.70012338197995  0.000000
2.244  0.000000  0.000000  0.000000  -31.169202761424234  3.478858992614964  11.220593323233796  64.49241387582173  14.128579672302873  -4.572010794071911  45.8760369295248  47.061745409865125  -34.7076488942209  23.78175313208617  0.000000
2.278  0.000000  0.000000  0.000000  -31.098426754307084  3.2320214010469326  10.775475134404777  64.36794411026072  13.978188622143385  -4.734682500930355  45.04651758575754  45.763820149523475  -33.037611534275726  23.868361428554202  0.000000
2.3120000000000003  0.000000  0.000000  0.000000  -31.022621133911485  2.9743231787403692  10.31983680791767  64.22558867853282  13.810292131477457  -4.906757981173498  44.182203958803576  44.408912764107775  -31.313337514339064  23.95963712162096  0.000000
2.346  0.000000  0.000000  0.000000  -30.94184046679468  2.7066302167360563  9.854541523711267  64.06350321360848  13.625468382023998  -5.087898725708854  43.28484455677132  43.00111783673301  -29.538445571659793  24.055466978024146  0.000000
2.3800000000000003  0.000000  0.000000  0.000000  -30.855235778228217  2.4302725584943317  9.380432356774948  63.879367816567985  13.424749513940318  -5.277467672637023  42.356462747849505  41.54344915994803  -27.716227816212726  24.155166163922004  0.000000
2.414  0.000000  0.000000  0.000000  -30.76214507335221  2.1469301976531088  8.898311275028892  63.67052585015017  13.208541411695082  -5.474547180720302  41.398777491750856  40.039281761500796  -25.850613652355957  24.258378580109035  0.000000
2.4480000000000004  0.000000  0.000000  0.000000  -30.66379887369921  1.8586863583767472  8.40880901966673  63.43587071846734  12.977461138000516  -5.6774533781892815  40.41322585959857  38.49214627258834  -23.946290043842005  24.36539380580637  0.000000
2.482  0.000000  0.000000  0.000000  -30.561301034703796  1.5683593196584704  7.91325231687211  63.17423404124843  12.731450249050235  -5.8840089814789  39.40131193690289  36.905882225825216  -22.007260722383386  24.4757361065847  0.000000
2.516  0.000000  0.000000  0.000000  -30.45538091730508  1.279197178484311  7.4134042248606145  62.88513338003803  12.469586673242532  -6.091645733793798  38.36420021969763  35.284261425898265  -20.038395717445624  24.588803517456114  0.000000
2.5500000000000003  0.000000  0.000000  0.000000  -30.347408583253223  0.9948466513948723  6.911917648842043  62.56815424622619  12.188608792687626  -6.297838096834183  37.303217601742105  33.6322687056114  -18.044562700827004  24.703812992137422  0.000000
2.584  0.000000  0.000000  0.000000  -30.238546492249846  0.7189838350070831  6.41256528068966  62.22346049842731  11.883780285966361  -6.50046040479943  36.219835442271986  31.95465721517485  -16.030812196773056  24.820140270032738  0.000000
2.6180000000000003  0.000000  0.000000  0.000000  -30.130112028787885  0.45549280164312994  5.919099526451344  61.851047904846496  11.54918946223419  -6.697268506002038  35.116451709733774  30.257047591711764  -14.001926115689207  24.937624506281356  0.000000
2.652  0.000000  0.000000  0.000000  -30.02150190361824  0.20687154973329044  5.434992116104332  61.45209312859462  11.17971309441523  -6.887133068397371  33.99568223810536  28.544648226556525  -11.963353583628281  25.055407470144825  0.000000
2.6860000000000004  0.000000  0.000000  0.000000  -29.911422286802267  -0.025628762771532372  4.964124300565775  61.026714386952456  10.771797363752409  -7.070606849067821  32.86058404299616  26.822453795207334  -9.920078414316556  25.173036850070844  0.000000
2.72  0.000000  0.000000  0.000000  -29.80108050902127  -0.24019183160345936  4.510315309270367  60.577401363232426  10.32326628434369  -7.2483036446133005  31.713221039748372  25.09497490975575  -7.878672395903692  25.290723741504355  0.000000
2.754  0.000000  0.000000  0.000000  -29.6909672839037  -0.43607613199011086  4.074990204674805  60.10564244478094  9.836731190657632  -7.420146126394685  30.556440818876947  23.365805247841347  -5.844200082923084  25.4084913542163  0.000000
2.7880000000000003  0.000000  0.000000  0.000000  -29.58021761457359  -0.6127389000402557  3.656080267756175  59.61547391443036  9.317720430584838  -7.5847893099873325  29.392910061054803  21.638904581332376  -3.823400514353642  25.525824732607433  0.000000
2.822  0.000000  0.000000  0.000000  -29.46846665657511  -0.7690601358176324  3.2546205236468735  59.10956441847965  8.7697902452768  -7.740718921119037  28.226366631774  19.918123328644345  -1.821913575559522  25.643730657205232  0.000000
2.8560000000000003  0.000000  0.000000  0.000000  -29.35570991656114  -0.9037588576300079  2.8719788282510312  58.594055732586355  8.19597684978708  -7.886400438753438  27.059981646961663  18.208312202201853  0.15394815291989397  25.761826843786686  0.000000
2.89  0.000000  0.000000  0.000000  -29.241935060776697  -1.0166465831310574  2.50746491338234  58.07271767776499  7.602428952840971  -8.019519949356276  25.89589757106783  16.51487707517193  2.0970590315783917  25.87995137482189  0.000000
